<?xml version="1.0" standalone="no"?>
<!DOCTYPE svg PUBLIC "-//W3C//DTD SVG 20010904//EN"
 "http://www.w3.org/TR/2001/REC-SVG-20010904/DTD/svg10.dtd">
<svg version="1.0" xmlns="http://www.w3.org/2000/svg"
 width="1200.000000pt" height="630.000000pt" viewBox="0 0 1200.000000 630.000000"
 preserveAspectRatio="xMidYMid meet">

<g transform="translate(0.000000,630.000000) scale(0.100000,-0.100000)"
fill="#000000" stroke="none">
<path d="M0 3150 l0 -3150 6000 0 6000 0 0 3150 0 3150 -6000 0 -6000 0 0
-3150z m6830 1420 l0 -220 -835 0 -835 0 0 220 0 220 835 0 835 0 0 -220z
m-727 -530 c54 -5 137 -19 185 -30 86 -21 248 -92 288 -127 40 -36 93 -113
115 -170 23 -57 23 -64 30 -663 7 -665 7 -668 66 -705 27 -17 32 -26 33 -57
l0 -38 -249 0 -249 0 -15 62 c-9 35 -19 80 -22 101 l-6 38 -52 -47 c-159 -143
-307 -203 -498 -204 -258 0 -467 141 -524 355 -21 79 -21 250 0 329 47 178
175 302 376 364 64 20 190 42 434 77 190 27 265 84 250 188 -15 99 -72 142
-211 158 -101 11 -200 -2 -257 -34 -42 -24 -82 -82 -102 -150 l-12 -42 -222
-3 c-179 -2 -221 0 -221 11 0 80 50 239 99 314 122 187 289 260 641 281 14 1
69 -3 123 -8z m727 -2320 l0 -220 -835 0 -835 0 0 220 0 220 835 0 835 0 0
-220z"/>
<path d="M6209 3075 c-27 -14 -112 -38 -200 -56 -236 -48 -297 -77 -340 -161
-21 -40 -27 -119 -14 -179 24 -112 148 -167 302 -135 190 39 281 139 303 331
12 106 13 225 3 225 -5 -1 -29 -12 -54 -25z"/>
</g>
</svg>
